<?xml version="1.0"?>
<svg xmlns="http://www.w3.org/2000/svg" version="1.1" width="200px" height="52px">
  <rect x="0" y="0" width="200px" height="52px" fill="#141414" fill-opacity="0.0"/>

  <path d="M10 0 C 1 13, 1 39, 10 52" stroke="#ffc31c" stroke-width="3px" fill="transparent"/>
  <path d="M50 0 C 59 13, 59 39, 50 52" stroke="#ffc31c" stroke-width="3px" fill="transparent"/>

  <path d="M20 10, 20 30" stroke="#ffc31c" stroke-width="3px"/>
  <path d="M40 10, 40 30" stroke="#ffc31c" stroke-width="3px"/>

  <circle cx="30" cy="40" r="3" fill="#ffc31c"/>

  <path d="M70 13, 100 13" stroke="#ffc31c" stroke-width="3px"/>
  <path d="M70 39, 100 39" stroke="#ffc31c" stroke-width="3px"/>

  <path d="M100 5, 100, 47" stroke="#ffc31c" stroke-width="3px"/>

  <path d="M100 5 C 115 0, 132 12, 130 26" stroke="#ffc31c" stroke-width="3px" fill="transparent"/>
  <path d="M100 47 C 115 52, 132 40, 130 26" stroke="#ffc31c" stroke-width="3px" fill="transparent"/>

  <path d="M130 26, C 160 0, 170 52, 200 26" stroke="#ffc31c" stroke-width="3px" fill="transparent"/>
</svg>
